<?xml version="1.0" encoding="UTF-8"?>
<svg version="1.1" xmlns="http://www.w3.org/2000/svg" width="273" height="414">
<path d="M0 0 C10.51245506 28.81079183 16.71177294 58.65741675 9 89 C8.80664062 89.96164063 8.61328125 90.92328125 8.4140625 91.9140625 C6.59294403 100.12092104 2.44808149 106.98088487 -2 114 C-2.54648193 114.86407471 -2.54648193 114.86407471 -3.10400391 115.74560547 C-16.93553519 137.30418078 -36.25650023 147.69400476 -59.5 156.8125 C-85.50466986 166.75748159 -85.50466986 166.75748159 -108.57421875 182.00390625 C-110.67930066 183.7361073 -112.51420901 184.92301795 -115 186 C-115 184.35 -115 182.7 -115 181 C-114.40316406 180.73960937 -113.80632812 180.47921875 -113.19140625 180.2109375 C-110.83893217 178.91099639 -109.63949215 177.6882846 -107.9375 175.625 C-99.86423967 166.14021014 -91.9287932 157.57935429 -82 150 C-81.27683594 149.42378906 -80.55367187 148.84757813 -79.80859375 148.25390625 C-78 147 -78 147 -76 147 C-76 146.34 -76 145.68 -76 145 C-74.63034374 143.81821695 -73.20049708 142.70603084 -71.75 141.625 C-56.77330728 129.8681903 -45.40288903 115.66219825 -38 98 C-38 97.01 -38 96.02 -38 95 C-38.99 96.98 -39.98 98.96 -41 101 C-41.66 101 -42.32 101 -43 101 C-43.22171875 101.52722656 -43.4434375 102.05445313 -43.671875 102.59765625 C-51.53358835 116.81810835 -66.29719126 128.64037322 -79.10522461 138.26928711 C-99.95935554 153.97378244 -117.37044028 172.02756964 -130 195 C-131.55859375 197.83203125 -131.55859375 197.83203125 -133 200 C-133.66 200 -134.32 200 -135 200 C-135.76122621 167.3518536 -130.02556953 135.19003837 -114.6015625 106.1875 C-113.34951218 103.69561449 -112.47544096 101.71680549 -112 99 C-111.34 99 -110.68 99 -110 99 C-109.67 97.68 -109.34 96.36 -109 95 C-108.34 95 -107.68 95 -107 95 C-106.59394531 94.13375 -106.59394531 94.13375 -106.1796875 93.25 C-95.94302814 73.72577552 -75.58629997 62.16074494 -57 52 C-40.48404859 43.07073767 -40.48404859 43.07073767 -25.375 32 C-23 30 -23 30 -21 30 C-20.72414063 29.40574219 -20.44828125 28.81148437 -20.1640625 28.19921875 C-19.06160616 26.11639016 -17.89435903 24.59923227 -16.375 22.8125 C-12.5773325 17.91107693 -10.21216626 12.36497897 -7.71630859 6.7277832 C-4.7033764 0 -4.7033764 0 0 0 Z " fill="#832584" transform="translate(223,120)"/>
<path d="M0 0 C0.66 0 1.32 0 2 0 C3.02511248 36.03080517 -6.15022138 69.12611874 -30.8203125 96.14453125 C-44.01741089 110.09752813 -60.70466564 119.89932382 -78 128 C-78.66 128 -79.32 128 -80 128 C-78.71862092 124.38826976 -77.2338469 121.84091564 -74.75 118.9375 C-61.87843294 102.70116645 -59.05006996 85.03913957 -60 65 C-60.20568604 65.73412109 -60.41137207 66.46824219 -60.62329102 67.22460938 C-70.77528019 103.18297193 -84.10109129 127.41450124 -116.3203125 147.69921875 C-119 149 -119 149 -122 148 C-121.67 147.34 -121.34 146.68 -121 146 C-121.45624756 146.31638428 -121.91249512 146.63276855 -122.38256836 146.95874023 C-130.85164498 152.79951916 -139.36533746 158.44438965 -148.4375 163.3125 C-149.15220459 163.70300537 -149.86690918 164.09351074 -150.60327148 164.49584961 C-152.36071933 165.41465568 -154.17742864 166.21829598 -156 167 C-156.99 166.67 -157.98 166.34 -159 166 C-155.96622202 150.76036124 -152.97715818 135.96918511 -146 122 C-145.70399902 121.39446289 -145.40799805 120.78892578 -145.10302734 120.16503906 C-137.15298374 104.21341185 -125.33751177 92.33565922 -111 82 C-110.195625 81.41863281 -109.39125 80.83726562 -108.5625 80.23828125 C-97.06163977 72.74218485 -83.24180983 68.08991462 -70.375 63.5 C-41.60705394 53.17242773 -18.19313738 38.50271555 -4.54296875 10.359375 C-2.96721868 6.928628 -1.46947836 3.47732417 0 0 Z M-120 143 C-119.67 143.66 -119.34 144.32 -119 145 C-118.67 144.34 -118.34 143.68 -118 143 C-118.66 143 -119.32 143 -120 143 Z " fill="#F14527" transform="translate(234,221)"/>
<path d="M0 0 C3.85333441 0.54802978 5.3284452 2.14627322 7.875 5 C11.6906737 8.96145525 15.63704953 12.0016563 20.25 14.9375 C20.84022949 15.31455078 21.43045898 15.69160156 22.03857422 16.08007812 C32.95487818 22.85763071 41.88191016 21.22582177 53.99316406 18.47949219 C58.54760192 17.3913029 63.05719083 16.14171575 67.5625 14.8671875 C84.61488534 10.56533574 103.83906719 12.05032873 120.5715332 16.87988281 C121.35230225 17.10514648 122.13307129 17.33041016 122.9375 17.5625 C123.70860107 17.78518555 124.47970215 18.00787109 125.27416992 18.23730469 C134.3871986 20.79053642 142.89609226 22.26498781 152 19 C154.32351941 17.62159513 156.45047941 16.26116622 158.625 14.6875 C159.1715625 14.30916016 159.718125 13.93082031 160.28125 13.54101562 C163.02630454 11.60043281 165.40139409 9.59577919 167.7734375 7.20703125 C170 5 170 5 172 5 C172.268125 4.360625 172.53625 3.72125 172.8125 3.0625 C174 1 174 1 177 0 C176.10437058 13.65834866 170.2491597 27.62168394 160 37 C150.68033038 44.01792047 139.73416197 48.84006566 129.21484375 53.78125 C122.38872673 57.04946707 116.6051643 60.5100636 110.890625 65.49609375 C109 67 109 67 107 67 C107 67.66 107 68.32 107 69 C105.85962631 70.10581692 104.71786185 71.21022509 103.5703125 72.30859375 C99.3167243 76.89019497 95.65306297 82.34100362 93 88 C92.34 88 91.68 88 91 88 C91 88.66 91 89.32 91 90 C89.35 90 87.7 90 86 90 C85.72027344 89.45472656 85.44054687 88.90945312 85.15234375 88.34765625 C73.94497995 67.26628062 56.57853744 57.84488812 35.76953125 47.99609375 C19.07954086 40.02003519 9.46020709 30.9374445 3 13.171875 C1.63241618 8.83407006 0.67972257 4.49428506 0 0 Z " fill="#076FD1" transform="translate(42,36)"/>
<path d="M0 0 C0.66 0 1.32 0 2 0 C2.64894237 2.06152389 3.2940264 4.12426258 3.9375 6.1875 C4.47697266 7.91033203 4.47697266 7.91033203 5.02734375 9.66796875 C9.36414766 24.5245701 8.02276736 39.8770279 0.6484375 53.49609375 C-4.8667048 61.6455638 -13.83769782 66.4070052 -23.265625 68.50390625 C-34.77331153 70.2671808 -44.61506073 66.34474768 -54 60 C-55.66170403 58.99177508 -57.32712886 57.98958574 -59 57 C-59.226875 57.804375 -59.45375 58.60875 -59.6875 59.4375 C-62.57064229 67.26317193 -66.83530402 74.30115006 -73 80 C-73.66 80 -74.32 80 -75 80 C-81.65773659 73.23573962 -86.16533723 65.61671281 -90 57 C-90.66 57 -91.32 57 -92 57 C-92.639375 57.721875 -93.27875 58.44375 -93.9375 59.1875 C-99.39729181 64.94241569 -108.69854401 68.08225563 -116.4453125 68.29272461 C-127.19549986 68.39313572 -135.18179876 66.6360157 -143.1875 58.953125 C-151.19355594 50.32590955 -154.648559 40.01456925 -155.16015625 28.34765625 C-154.72032375 18.81080024 -152.00049908 10.00149725 -149 1 C-145.50901968 2.27063824 -142.38794544 3.87893005 -139.19189453 5.76586914 C-130.21727963 11.06226762 -120.88411626 15.37204451 -111.3137207 19.48583984 C-92.61261424 27.77817511 -83.54824533 42.13179275 -75 60 C-75 60.66 -75 61.32 -75 62 C-74.34 62 -73.68 62 -73 62 C-72.76410156 61.36449219 -72.52820313 60.72898438 -72.28515625 60.07421875 C-63.04116084 37.96168263 -51.41292231 25.24452709 -29.3125 15.625 C-13.69706456 9.39921645 -13.69706456 9.39921645 0 0 Z M-129.8125 22.875 C-133.11423523 27.59176461 -133.49339874 31.6596338 -132.66015625 37.30078125 C-130.96790369 43.70479584 -127.32403204 48.14030275 -122 52 C-115.60824528 55.20109086 -108.9030602 55.88475513 -102 54 C-97.68876414 51.99977782 -95.46676771 50.07559516 -93.5625 45.6875 C-93.2840625 44.3571875 -93.2840625 44.3571875 -93 43 C-96.28696233 42.20046862 -97.71023192 41.90341064 -101 43 C-106.97501722 43.53476918 -111.9124861 43.51280722 -117 40 C-120.61164233 36.58358158 -121.58444921 33.73660949 -121.984375 28.9375 C-122.00390085 26.51629476 -121.65478936 24.32813995 -121 22 C-124.90996861 20.81791647 -126.34015462 20.56010308 -129.8125 22.875 Z M-27 21 C-27.10758877 24.14103784 -27.10758877 24.14103784 -26.1875 27.6875 C-25.61329544 32.13348388 -26.92005702 34.71933978 -29.48828125 38.30078125 C-32.2568323 41.41271847 -34.91246731 42.7947983 -39.06640625 43.203125 C-44.41875383 43.31482617 -49.69792306 42.67327961 -55 42 C-54.49216139 46.44358783 -53.25203984 48.91056215 -50 52 C-43.64571007 55.43475131 -36.92981696 55.82206394 -30 54 C-23.19705062 50.56778909 -18.12166794 46.5727682 -15.57421875 39.25390625 C-14.30346372 34.26597663 -14.2025133 29.7848512 -16.3125 25.0625 C-18.01097679 22.78127739 -18.01097679 22.78127739 -21 21 C-24.12521833 20.83300768 -24.12521833 20.83300768 -27 21 Z " fill="#172781" transform="translate(205,80)"/>
<path d="M0 0 C0 0.66 0 1.32 0 2 C-2.12708874 3.96346653 -3.88268999 4.9626269 -6.6484375 5.84375 C-35.20131898 15.69416133 -60.7065919 39.84201485 -73.9362793 66.63818359 C-83.22267176 86.37015041 -86.35601303 106.46288528 -88 128 C-88.99 128 -89.98 128 -91 128 C-103.92403336 105.24027372 -112.94418313 81.0977003 -105.97705078 54.77416992 C-101.45364849 39.7331982 -92.039719 27.70967838 -78.48828125 19.84765625 C-62.53171601 11.39585853 -45.8831326 7.5667494 -28.27416992 4.28027344 C-25.40962588 3.74478935 -22.54755533 3.1972958 -19.68554688 2.6484375 C-17.85169557 2.30137945 -16.01771567 1.95500008 -14.18359375 1.609375 C-13.33462021 1.44693298 -12.48564667 1.28449097 -11.61094666 1.11712646 C-7.68985424 0.39111501 -4.00865786 -0.20935062 0 0 Z " fill="#115FC4" transform="translate(175,157)"/>
<path d="M0 0 C4.46965816 1.61595334 8.40669002 3.8748756 12.5 6.25 C19.50221588 10.2597258 26.60051189 13.76905913 34 17 C33.01 19.31 32.02 21.62 31 24 C30.34 23.67 29.68 23.34 29 23 C28.34 23.66 27.68 24.32 27 25 C26.505 23.02 26.505 23.02 26 21 C23.08369887 20.94250443 23.08369887 20.94250443 20 22 C16.95462384 26.71542115 16.60284955 30.38115033 17.50390625 35.87109375 C19.11398459 42.78048507 23.2213362 47.12369278 29 51 C31.72248361 52.04924241 34.09750176 52.53352707 37 53 C37 53.66 37 54.32 37 55 C40.97721196 56.23735483 42.95455806 56.45379073 46.84375 54.765625 C49.60566838 53.23930169 52.31063906 51.6501883 55 50 C55.66 49.67 56.32 49.34 57 49 C57.495 50.98 57.495 50.98 58 53 C57.34 53 56.68 53 56 53 C55.97679687 53.91136719 55.95359375 54.82273438 55.9296875 55.76171875 C55 59 55 59 51.9453125 61.08203125 C50.68246532 61.6816851 49.40829091 62.25794415 48.125 62.8125 C47.48691406 63.11091797 46.84882812 63.40933594 46.19140625 63.71679688 C37.13672189 67.90387952 26.05966997 68.92730152 16.5 65.4375 C7.01858649 60.88769419 0.20906645 53.22009042 -3.29296875 43.359375 C-7.86765152 28.05972782 -4.96916624 14.90749872 0 0 Z " fill="#162C97" transform="translate(56,81)"/>
<path d="M0 0 C3.28784841 1.49310547 5.90734784 3.40914381 8.75 5.625 C19.4410042 13.46506975 31.20060279 18.66865004 44 22 C42 24 42 24 38.625 25.0625 C32.80623426 27.11996413 23.81593317 32.36813367 21 38 C20.34 38 19.68 38 19 38 C18.74089844 38.53753906 18.48179688 39.07507813 18.21484375 39.62890625 C17.32143395 41.37263535 16.36657381 43.08521933 15.37890625 44.77734375 C4.50052038 63.70339573 4.39360552 86.17624907 10 107 C7 106 7 106 6.08032227 104.22851562 C5.82822998 103.46216797 5.5761377 102.69582031 5.31640625 101.90625 C5.03047607 101.04926514 4.7445459 100.19228027 4.44995117 99.30932617 C4.15709229 98.38224854 3.8642334 97.4551709 3.5625 96.5 C3.25610596 95.55036377 2.94971191 94.60072754 2.6340332 93.62231445 C-7.50557024 61.59983238 -7.48899301 32.55852991 0 0 Z " fill="#1A44B2" transform="translate(55,147)"/>
<path d="M0 0 C1.21907355 3.50223213 0.77227976 5.59167909 -0.37109375 9.078125 C-0.69384277 10.06643311 -1.0165918 11.05474121 -1.34912109 12.07299805 C-1.70828613 13.12140869 -2.06745117 14.16981934 -2.4375 15.25 C-2.98784912 16.86612183 -2.98784912 16.86612183 -3.54931641 18.51489258 C-12.605195 44.44552399 -26.77228665 61.79812786 -50 76.5625 C-51.60875 77.58537109 -51.60875 77.58537109 -53.25 78.62890625 C-56 80 -56 80 -59 79 C-58.01 77.68 -57.02 76.36 -56 75 C-56.33 74.34 -56.66 73.68 -57 73 C-55.48951738 69.712479 -54.00788984 68.00607817 -51.125 65.78515625 C-47.72085247 62.99881947 -45.89203008 59.69790783 -44.0625 55.75 C-43.72677979 55.04601074 -43.39105957 54.34202148 -43.04516602 53.61669922 C-42.01044749 51.41965743 -41.00327 49.21155174 -40 47 C-39.69416992 46.34483398 -39.38833984 45.68966797 -39.07324219 45.01464844 C-34.22656097 34.55323269 -31.17416726 23.89719942 -28.65991211 12.64501953 C-26.69046073 4.50023175 -26.69046073 4.50023175 -22.9375 1.78125 C-20.27381923 1.07282426 -17.72682335 0.39904732 -15 0 C-13.906875 -0.20625 -12.81375 -0.4125 -11.6875 -0.625 C-7.51585161 -1.04923543 -4.12885402 -0.65192432 0 0 Z " fill="#F75E25" transform="translate(171,290)"/>
<path d="M0 0 C0.33 0.66 0.66 1.32 1 2 C1.99 2.33 2.98 2.66 4 3 C7 5 7 5 7.6875 6.91796875 C8.28206897 11.23602591 8.40353966 14.15611703 5.9375 17.875 C2.86329392 21.50508992 -0.22250287 23.67447104 -5.06640625 24.2421875 C-10.57902793 24.41475653 -15.69047536 23.40583158 -21 22 C-18.75216109 27.17379682 -16.83454463 30.77697025 -12 34 C-15 34 -15 34 -18 33 C-18 32.34 -18 31.68 -18 31 C-18.99 30.67 -19.98 30.34 -21 30 C-21.66015625 28.1875 -21.66015625 28.1875 -22.0625 26 C-22.42700873 23.85944703 -22.42700873 23.85944703 -23 22 C-23.66 21.67 -24.32 21.34 -25 21 C-24.67 20.34 -24.34 19.68 -24 19 C-26.97 23.95 -26.97 23.95 -30 29 C-31 25 -31 25 -29.8125 22.44921875 C-23.03981641 12.12963405 -13.56046236 0 0 0 Z " fill="#12236F" transform="translate(171,100)"/>
<path d="M0 0 C8.47507081 23.22706726 13.08939644 45.19863304 12 70 C11.67 70 11.34 70 11 70 C10.9498877 69.17798096 10.89977539 68.35596191 10.84814453 67.5090332 C10.61571915 63.77626054 10.37049792 60.04443474 10.125 56.3125 C10.04636719 55.01892578 9.96773438 53.72535156 9.88671875 52.39257812 C9.80292969 51.14541016 9.71914062 49.89824219 9.6328125 48.61328125 C9.52283936 46.89298706 9.52283936 46.89298706 9.41064453 45.13793945 C9.01244939 42.09513196 8.20107852 39.80159688 7 37 C7.020625 36.236875 7.04125 35.47375 7.0625 34.6875 C6.98925443 31.53794051 5.96100112 29.14540418 4.79296875 26.25 C3.92437257 23.78541183 3.41516902 21.38044863 2.9375 18.8125 C1.85222454 12.98581618 -0.30294949 8.27150782 -3 3 C-3.19335938 3.60328125 -3.38671875 4.2065625 -3.5859375 4.828125 C-3.84632813 5.62734375 -4.10671875 6.4265625 -4.375 7.25 C-4.75785156 8.43335938 -4.75785156 8.43335938 -5.1484375 9.640625 C-6.70480183 13.9527537 -8.97074112 17.72989064 -11.375 21.625 C-11.96023437 22.58664063 -12.54546875 23.54828125 -13.1484375 24.5390625 C-15.03509309 27.04664272 -16.21227825 27.75771035 -19 29 C-19.4640625 30.2065625 -19.4640625 30.2065625 -19.9375 31.4375 C-21.33129088 34.79899566 -22.81739432 35.30261031 -26 37 C-27.67926255 38.19485989 -29.35814245 39.39028667 -31.03125 40.59375 C-33.25891207 42.1849372 -35.49493484 43.76031229 -37.75 45.3125 C-38.48734375 45.82425781 -39.2246875 46.33601563 -39.984375 46.86328125 C-42 48 -42 48 -45 48 C-45 48.66 -45 49.32 -45 50 C-45.60070312 50.12117188 -46.20140625 50.24234375 -46.8203125 50.3671875 C-49.57928153 51.16817851 -51.42115335 52.78510197 -53.6953125 54.48828125 C-56.5937264 56.38944426 -59.62318437 57.81751266 -62.75 59.3125 C-70.24162156 62.91447165 -76.68096076 67.56334512 -83.1796875 72.734375 C-85 74 -85 74 -87 74 C-87.20625 74.556875 -87.4125 75.11375 -87.625 75.6875 C-89.18173365 78.30564296 -91.11645189 79.83398362 -93.48046875 81.71484375 C-96.37307041 84.16128577 -98.45008686 87.07514609 -100.375 90.3125 C-101.80188913 92.6723551 -103.31841969 94.75890089 -105 96.9375 C-106.91831631 99.43841608 -108.28249903 101.57546098 -109.6875 104.4375 C-111 107 -111 107 -114 108 C-114.73323796 110.01508358 -114.73323796 110.01508358 -115 112 C-115.66 112 -116.32 112 -117 112 C-115.69045524 107.76916309 -114.16145284 103.872603 -112 100 C-111.01 99.505 -111.01 99.505 -110 99 C-109.34786708 96.97536745 -109.34786708 96.97536745 -109 95 C-108.34 95 -107.68 95 -107 95 C-106.72929688 94.4225 -106.45859375 93.845 -106.1796875 93.25 C-95.94302814 73.72577552 -75.58629997 62.16074494 -57 52 C-40.48404859 43.07073767 -40.48404859 43.07073767 -25.375 32 C-23 30 -23 30 -21 30 C-20.72414063 29.40574219 -20.44828125 28.81148437 -20.1640625 28.19921875 C-19.06160616 26.11639016 -17.89435903 24.59923227 -16.375 22.8125 C-12.5773325 17.91107693 -10.21216626 12.36497897 -7.71630859 6.7277832 C-4.7033764 0 -4.7033764 0 0 0 Z " fill="#362A89" transform="translate(223,120)"/>
<path d="M0 0 C0.66 0 1.32 0 2 0 C2.67588888 8.17074561 1.78121132 12.48016639 -3 19 C-4.04121714 20.6776284 -5.0818548 22.3556411 -6.11328125 24.03930664 C-19.95809821 46.39737767 -39.77735521 57.59447756 -63.6875 66.9375 C-89.60055034 76.81209071 -89.60055034 76.81209071 -112.57421875 92.00390625 C-114.67930066 93.7361073 -116.51420901 94.92301795 -119 96 C-119 94.35 -119 92.7 -119 91 C-118.10474609 90.60941406 -118.10474609 90.60941406 -117.19140625 90.2109375 C-114.83893217 88.91099639 -113.63949215 87.6882846 -111.9375 85.625 C-103.86423967 76.14021014 -95.9287932 67.57935429 -86 60 C-85.27683594 59.42378906 -84.55367187 58.84757812 -83.80859375 58.25390625 C-82 57 -82 57 -80 57 C-80 57.99 -80 58.98 -80 60 C-81.31622164 60.93521011 -82.64575717 61.85471346 -84.01953125 62.703125 C-91.08560951 67.33022162 -98.28385018 72.92577527 -103 80 C-101.02 80 -99.04 80 -97 80 C-96.67 78.68 -96.34 77.36 -96 76 C-92.04 75.01 -92.04 75.01 -88 74 C-88 73.34 -88 72.68 -88 72 C-87.16597656 71.75765625 -86.33195312 71.5153125 -85.47265625 71.265625 C-79.57912139 69.51039125 -73.89707248 67.67100971 -68.3203125 65.078125 C-65.50555795 63.77025925 -62.66640877 62.53259859 -59.8125 61.3125 C-58.84957031 60.89613281 -57.88664062 60.47976563 -56.89453125 60.05078125 C-53.92542078 58.97292603 -51.1244295 58.42121938 -48 58 C-48 57.34 -48 56.68 -48 56 C-46.989375 55.608125 -45.97875 55.21625 -44.9375 54.8125 C-42.07876454 53.60638038 -39.72992722 52.17376734 -37.25 50.3125 C-34 48 -34 48 -31 48 C-31 47.34 -31 46.68 -31 46 C-29.390625 44.5625 -29.390625 44.5625 -27.25 43 C-26.20585937 42.2265625 -26.20585937 42.2265625 -25.140625 41.4375 C-23 40 -23 40 -20.78125 38.9453125 C-18.78010359 38.1408683 -18.78010359 38.1408683 -18.25 35.875 C-18.1675 35.25625 -18.085 34.6375 -18 34 C-17.34 34 -16.68 34 -16 34 C-15.73960937 33.45988281 -15.47921875 32.91976562 -15.2109375 32.36328125 C-13.78183044 29.57421748 -12.21333792 26.88906165 -10.625 24.1875 C-10.00496094 23.12789062 -9.38492188 22.06828125 -8.74609375 20.9765625 C-7.74023331 19.26187423 -6.73314732 17.54790096 -5.72265625 15.8359375 C-2.64916833 10.5704148 -0.84431557 6.05092825 0 0 Z " fill="#D31C52" transform="translate(227,210)"/>
<path d="M0 0 C0.66 0 1.32 0 2 0 C1.10437058 13.65834866 -4.7508403 27.62168394 -15 37 C-24.31966962 44.01792047 -35.26583803 48.84006566 -45.78515625 53.78125 C-52.61127327 57.04946707 -58.3948357 60.5100636 -64.109375 65.49609375 C-66 67 -66 67 -68 67 C-68 67.66 -68 68.32 -68 69 C-69.14037369 70.10581692 -70.28213815 71.21022509 -71.4296875 72.30859375 C-75.6832757 76.89019497 -79.34693703 82.34100362 -82 88 C-82.66 88 -83.32 88 -84 88 C-84 88.66 -84 89.32 -84 90 C-85.65 90 -87.3 90 -89 90 C-89.27972656 89.45472656 -89.55945313 88.90945312 -89.84765625 88.34765625 C-99.84854571 69.53569375 -114.27330453 60.07893793 -132.94384766 51.00390625 C-136.30849945 49.36113159 -139.65338981 47.67913543 -143 46 C-144.7325 45.13375 -144.7325 45.13375 -146.5 44.25 C-147.7375 43.63125 -147.7375 43.63125 -149 43 C-148.67 42.34 -148.34 41.68 -148 41 C-147.21496094 41.39832031 -146.42992187 41.79664063 -145.62109375 42.20703125 C-144.57050781 42.73683594 -143.51992187 43.26664063 -142.4375 43.8125 C-141.40496094 44.33457031 -140.37242187 44.85664062 -139.30859375 45.39453125 C-137.11083101 46.46097811 -134.8841716 47.46989061 -132.6328125 48.41796875 C-128.44382379 50.24220577 -124.45748018 52.33457067 -120.4375 54.5 C-118.97821239 55.28189946 -117.5185831 56.06316163 -116.05859375 56.84375 C-115.36725342 57.21580566 -114.67591309 57.58786133 -113.96362305 57.97119141 C-112.22490663 58.8821638 -110.45030851 59.72391692 -108.671875 60.5546875 C-105.99026211 62.00526757 -104.63622704 63.22401483 -102.8125 65.625 C-100.79019306 68.26569832 -100.28502527 68.90499158 -97 70 C-96.29289322 71.64991582 -95.63437344 73.3207762 -95 75 C-94.29875 76.051875 -93.5975 77.10375 -92.875 78.1875 C-91 81 -91 81 -91 83 C-90.34 83 -89.68 83 -89 83 C-88.01 83.99 -88.01 83.99 -87 85 C-84.90708843 84.91428339 -84.90708843 84.91428339 -83 84 C-82.505 82.515 -82.505 82.515 -82 81 C-81.34 81 -80.68 81 -80 81 C-79.34 78.69 -78.68 76.38 -78 74 C-77.34 74 -76.68 74 -76 74 C-76.33 73.01 -76.66 72.02 -77 71 C-74 69 -71 67 -68 65 C-68 64.01 -68 63.02 -68 62 C-67.34 61.773125 -66.68 61.54625 -66 61.3125 C-63.48472307 60.21206634 -61.5170171 59.06779936 -59.25 57.5625 C-55.06327377 54.86190178 -50.77050896 53.35826991 -46 52 C-46 51.34 -46 50.68 -46 50 C-45.34 50 -44.68 50 -44 50 C-43.505 49.01 -43.505 49.01 -43 48 C-42.0925 47.855625 -41.185 47.71125 -40.25 47.5625 C-35.87113825 46.80462008 -33.11918187 45.11918187 -30 42 C-28.57798645 41.36023359 -27.1377836 40.76030109 -25.6875 40.1875 C-21.57380062 38.43108903 -19.04548164 36.31420061 -16 33 C-15.01 32.67 -14.02 32.34 -13 32 C-13 31.34 -13 30.68 -13 30 C-12.01 29.505 -12.01 29.505 -11 29 C-10.67 28.01 -10.34 27.02 -10 26 C-9.34 26 -8.68 26 -8 26 C-7.67 24.35 -7.34 22.7 -7 21 C-6.34 21 -5.68 21 -5 21 C-4.69255859 19.86111328 -4.69255859 19.86111328 -4.37890625 18.69921875 C-3.97478516 17.20841797 -3.97478516 17.20841797 -3.5625 15.6875 C-3.29566406 14.70136719 -3.02882812 13.71523438 -2.75390625 12.69921875 C-2.21920575 10.78482474 -1.62855462 8.88566385 -1 7 C-5.10711771 8.86687169 -7.88162476 10.77025422 -11 14 C-11.66 14 -12.32 14 -13 14 C-13 14.66 -13 15.32 -13 16 C-15.31 16.99 -17.62 17.98 -20 19 C-20 18.34 -20 17.68 -20 17 C-18.29870251 15.64482856 -16.53714076 14.36477042 -14.75 13.125 C-11.86574331 11.11822881 -9.23908224 9.24159009 -6.765625 6.7421875 C-5 5 -5 5 -3 5 C-2.690625 4.360625 -2.38125 3.72125 -2.0625 3.0625 C-1 1 -1 1 0 0 Z " fill="#1542A7" transform="translate(217,36)"/>
<path d="M0 0 C0.99 0.99 1.98 1.98 3 3 C-3.08948498 8.73558705 -9.27267134 14.06300495 -15.94995117 19.11352539 C-36.81239071 34.98465765 -54.3073947 52.91289342 -67 76 C-68.55859375 78.83203125 -68.55859375 78.83203125 -70 81 C-70.66 81 -71.32 81 -72 81 C-72.2189108 71.6111591 -72.01646998 62.35451425 -71.125 53 C-71.04652832 52.12182617 -70.96805664 51.24365234 -70.88720703 50.33886719 C-70.66808254 48.21659813 -70.34386757 46.10565823 -70 44 C-69.01 43.505 -69.01 43.505 -68 43 C-67.22224603 46.80235272 -67.03724768 49.29506349 -68 53 C-68.24323906 55.03780282 -68.44916397 57.0802782 -68.625 59.125 C-68.72039062 60.17945313 -68.81578125 61.23390625 -68.9140625 62.3203125 C-69.21178043 64.9728169 -69.21178043 64.9728169 -68 67 C-65.00732885 65.96804443 -64.12812541 65.25625081 -62.6875 62.375 C-60.78266636 58.56533272 -58.41331725 55.92310516 -55.5234375 52.83203125 C-53.78859699 50.97149393 -53.78859699 50.97149393 -53 48 C-52.34 48 -51.68 48 -51 48 C-50.7525 47.443125 -50.505 46.88625 -50.25 46.3125 C-48.77075182 43.57589087 -47.06532561 41.32349131 -45 39 C-44.34 39 -43.68 39 -43 39 C-42.938125 38.401875 -42.87625 37.80375 -42.8125 37.1875 C-41.67331318 34.12045856 -39.78922519 33.62164255 -37 32 C-35.65705519 30.34106818 -34.32255312 28.67523395 -33 27 C-32.01 26.67 -31.02 26.34 -30 26 C-29.38125 25.360625 -28.7625 24.72125 -28.125 24.0625 C-26 22 -26 22 -23.375 21 C-20.47413544 19.77858334 -20.25257221 18.77355275 -19 16 C-17 15.33333333 -15 14.66666667 -13 14 C-12.69191406 13.38382813 -12.38382813 12.76765625 -12.06640625 12.1328125 C-10.76311967 9.52623934 -9.31682604 8.5245509 -6.9375 6.875 C-3.95372478 4.88925353 -3.95372478 4.88925353 -2 2 C-1.34 2 -0.68 2 0 2 C0 1.34 0 0.68 0 0 Z " fill="#B7146A" transform="translate(160,239)"/>
<path d="M0 0 C0.99 0.33 1.98 0.66 3 1 C2.01 1.66 1.02 2.32 0 3 C-1.00805555 5.17897492 -1.00805555 5.17897492 -1.6875 7.625 C-1.93886719 8.44226563 -2.19023437 9.25953125 -2.44921875 10.1015625 C-2.63097656 10.72804688 -2.81273437 11.35453125 -3 12 C-3.495 11.01 -3.495 11.01 -4 10 C-11.7421676 9.8641725 -18.54763225 10.7502286 -26 13 C-27.33130115 13.34135927 -28.66358148 13.67925956 -30 14 C-30.10570312 15.09699219 -30.21140625 16.19398438 -30.3203125 17.32421875 C-30.98703744 22.63345472 -32.40192628 27.67829916 -33.875 32.8125 C-34.13152344 33.75287109 -34.38804687 34.69324219 -34.65234375 35.66210938 C-34.90886719 36.56380859 -35.16539062 37.46550781 -35.4296875 38.39453125 C-35.65897949 39.20768799 -35.88827148 40.02084473 -36.12451172 40.85864258 C-37.06918225 43.16921292 -38.12683398 44.38030837 -40 46 C-39.37594336 42.6802836 -38.60286291 39.47478674 -37.625 36.2421875 C-37.36203125 35.36949219 -37.0990625 34.49679687 -36.828125 33.59765625 C-36.55484375 32.69917969 -36.2815625 31.80070312 -36 30.875 C-35.72671875 29.96878906 -35.4534375 29.06257813 -35.171875 28.12890625 C-34.14760485 24.73977709 -33.11967142 21.35901425 -32 18 C-40.78385232 19.44840118 -49.03465819 24.58956365 -56 30 C-56.33 30.66 -56.66 31.32 -57 32 C-57.66 32 -58.32 32 -59 32 C-59 32.66 -59 33.32 -59 34 C-60.3303125 34.5878125 -60.3303125 34.5878125 -61.6875 35.1875 C-66.2539611 37.68612966 -69.12814414 40.69221622 -72 45 C-72.66 45 -73.32 45 -74 45 C-74.2475 45.9075 -74.495 46.815 -74.75 47.75 C-76 51 -76 51 -77.875 52.8125 C-80.39749595 55.409187 -81.69138542 57.9910786 -83.25 61.25 C-83.77078125 62.32765625 -84.2915625 63.4053125 -84.828125 64.515625 C-85.21484375 65.33546875 -85.6015625 66.1553125 -86 67 C-86.69921875 65.3984375 -86.69921875 65.3984375 -87 63 C-80.02533311 46.21651586 -66.45392471 33.41957925 -52 23 C-51.195625 22.41863281 -50.39125 21.83726562 -49.5625 21.23828125 C-36.38632217 12.65023677 -20.33677694 7.58742176 -5.61328125 2.3125 C-2.22278629 1.15929692 -2.22278629 1.15929692 0 0 Z " fill="#E61A2A" transform="translate(175,280)"/>
<path d="M0 0 C0.66 0 1.32 0 2 0 C2.63321504 22.25633616 0.51498696 45.89992289 -10 66 C-10.99 66.495 -10.99 66.495 -12 67 C-11.566875 65.783125 -11.13375 64.56625 -10.6875 63.3125 C-8.67573096 57.31551229 -7.34557312 51.17436743 -6 45 C-5.34 45 -4.68 45 -4 45 C-4.01160156 44.39671875 -4.02320313 43.7934375 -4.03515625 43.171875 C-4.04417969 42.37265625 -4.05320313 41.5734375 -4.0625 40.75 C-4.07410156 39.96109375 -4.08570313 39.1721875 -4.09765625 38.359375 C-4 36 -4 36 -3.51367188 34.12304688 C-2.98373562 31.93277804 -2.79602416 29.92048314 -2.68359375 27.671875 C-2.64169922 26.87265625 -2.59980469 26.0734375 -2.55664062 25.25 C-2.51732422 24.425 -2.47800781 23.6 -2.4375 22.75 C-2.39431641 21.90953125 -2.35113281 21.0690625 -2.30664062 20.203125 C-2.20091457 18.13559329 -2.09998705 16.06781719 -2 14 C-2.26554687 14.56589844 -2.53109375 15.13179687 -2.8046875 15.71484375 C-3.15789062 16.44832031 -3.51109375 17.18179688 -3.875 17.9375 C-4.22304687 18.66839844 -4.57109375 19.39929688 -4.9296875 20.15234375 C-6 22 -6 22 -8 23 C-8.95780797 24.71744878 -9.9142667 26.43568626 -10.859375 28.16015625 C-12.52152736 30.84123078 -14.72119771 32.83805937 -17 35 C-17.53625 35.763125 -18.0725 36.52625 -18.625 37.3125 C-19.07875 37.869375 -19.5325 38.42625 -20 39 C-20.99 39 -21.98 39 -23 39 C-23 39.66 -23 40.32 -23 41 C-23.66 41 -24.32 41 -25 41 C-25.33 41.99 -25.66 42.98 -26 44 C-28.475 44.495 -28.475 44.495 -31 45 C-30.360625 44.360625 -29.72125 43.72125 -29.0625 43.0625 C-28.37994141 42.37414062 -28.37994141 42.37414062 -27.68359375 41.671875 C-26.4408409 40.43777241 -25.18022524 39.22159705 -23.91015625 38.015625 C-12.60846263 27.1196332 -6.04317045 14.32522634 0 0 Z " fill="#D62433" transform="translate(234,221)"/>
<path d="M0 0 C-0.33 0.66 -0.66 1.32 -1 2 C-1.99 2 -2.98 2 -4 2 C-4 2.66 -4 3.32 -4 4 C-4.60070312 4.12117187 -5.20140625 4.24234375 -5.8203125 4.3671875 C-8.57928153 5.16817851 -10.42115335 6.78510197 -12.6953125 8.48828125 C-15.5937264 10.38944426 -18.62318437 11.81751266 -21.75 13.3125 C-29.24162156 16.91447165 -35.68096076 21.56334512 -42.1796875 26.734375 C-44 28 -44 28 -46 28 C-46.309375 28.8353125 -46.309375 28.8353125 -46.625 29.6875 C-48.18173365 32.30564296 -50.11645189 33.83398362 -52.48046875 35.71484375 C-55.37307041 38.16128577 -57.45008686 41.07514609 -59.375 44.3125 C-60.80188913 46.6723551 -62.31841969 48.75890089 -64 50.9375 C-65.91831631 53.43841608 -67.28249903 55.57546098 -68.6875 58.4375 C-70 61 -70 61 -73 62 C-73.73323796 64.01508358 -73.73323796 64.01508358 -74 66 C-74.66 66 -75.32 66 -76 66 C-74.69045524 61.76916309 -73.16145284 57.872603 -71 54 C-70.01 53.505 -70.01 53.505 -69 53 C-68.34786708 50.97536745 -68.34786708 50.97536745 -68 49 C-67.34 49 -66.68 49 -66 49 C-65.72929688 48.4225 -65.45859375 47.845 -65.1796875 47.25 C-55.32336237 28.45118121 -35.83174321 16.79105452 -17.85986328 7.02246094 C-16.1316893 6.07239627 -14.42234462 5.08829903 -12.71484375 4.1015625 C-11.75707031 3.55242187 -10.79929687 3.00328125 -9.8125 2.4375 C-8.99394531 1.96183594 -8.17539063 1.48617187 -7.33203125 0.99609375 C-4.7131248 -0.12253463 -2.81901748 -0.1952783 0 0 Z " fill="#473090" transform="translate(182,166)"/>
<path d="M0 0 C0.495 0.99 0.495 0.99 1 2 C-0.1076785 3.98421542 -1.31525011 5.91291315 -2.5625 7.8125 C-16.75545998 30.11527945 -21.02369557 54.10934748 -23 80 C-23.99 80 -24.98 80 -26 80 C-38 58.15533981 -38 58.15533981 -38 51 C-37.34 51 -36.68 51 -36 51 C-35.49440092 52.43554025 -34.9957251 53.8735202 -34.5 55.3125 C-34.08234375 56.51326172 -34.08234375 56.51326172 -33.65625 57.73828125 C-33 60 -33 60 -33 63 C-32.01 63.33 -31.02 63.66 -30 64 C-29.3125 66.0625 -29.3125 66.0625 -29 68 C-27.35 68.33 -25.7 68.66 -24 69 C-24.02320312 67.90300781 -24.04640625 66.80601562 -24.0703125 65.67578125 C-24.08907921 64.221361 -24.10727844 62.76693336 -24.125 61.3125 C-24.15013672 60.2306543 -24.15013672 60.2306543 -24.17578125 59.12695312 C-24.21452138 54.88490876 -23.74093729 51.84030285 -22 48 C-21.57851125 46.07207923 -21.20323562 44.1334683 -20.875 42.1875 C-20.70742187 41.21167969 -20.53984375 40.23585937 -20.3671875 39.23046875 C-20.24601562 38.49441406 -20.12484375 37.75835937 -20 37 C-19.34 37 -18.68 37 -18 37 C-18.10248047 35.98873047 -18.10248047 35.98873047 -18.20703125 34.95703125 C-17.93571284 31.08178533 -16.40005624 28.10189025 -14.6875 24.6875 C-14.04203326 23.35785472 -13.39878043 22.02713231 -12.7578125 20.6953125 C-12.45133789 20.06012695 -12.14486328 19.42494141 -11.82910156 18.77050781 C-10.33683953 15.58385168 -9.15237662 12.32155614 -8 9 C-7.34 9 -6.68 9 -6 9 C-6 8.01 -6 7.02 -6 6 C-5.34 6 -4.68 6 -4 6 C-4 5.01 -4 4.02 -4 3 C-2 1.3125 -2 1.3125 0 0 Z " fill="#253CA0" transform="translate(110,205)"/>
<path d="M0 0 C0.33 0 0.66 0 1 0 C0.70277433 2.67503102 0.36666232 5.33414923 0 8 C-0.09925781 8.81726563 -0.19851562 9.63453125 -0.30078125 10.4765625 C-1.31675577 17.10605278 -3.72272765 20.94312629 -8 26 C-8.90933111 27.2192149 -9.80597937 28.44802857 -10.6875 29.6875 C-11.06261719 30.20699219 -11.43773437 30.72648437 -11.82421875 31.26171875 C-13.0830437 33.07443172 -13.0830437 33.07443172 -14.35546875 35.3828125 C-16.18866156 38.30024523 -18.28149545 40.66460666 -20.625 43.1875 C-23.66521982 46.34915935 -23.66521982 46.34915935 -26 50 C-27.66279327 51.0064275 -29.32983484 52.00585407 -31 53 C-31.556875 53.556875 -32.11375 54.11375 -32.6875 54.6875 C-33.120625 55.120625 -33.55375 55.55375 -34 56 C-34.66 56 -35.32 56 -36 56 C-36 56.66 -36 57.32 -36 58 C-37.98 58.66 -39.96 59.32 -42 60 C-42 59.34 -42 58.68 -42 58 C-40.63034374 56.81821695 -39.20049708 55.70603084 -37.75 54.625 C-19.41353216 40.23074307 -7.28589278 22.17445627 0 0 Z " fill="#B5176A" transform="translate(189,207)"/>
<path d="M0 0 C0.66 0 1.32 0 2 0 C1.10824931 13.59919795 -4.72146676 27.70558165 -15 37 C-18.55948259 39.52523765 -22.23949683 41.78858329 -26 44 C-27.31291016 44.87398437 -27.31291016 44.87398437 -28.65234375 45.765625 C-29.42707031 46.17296875 -30.20179688 46.5803125 -31 47 C-31.99 46.67 -32.98 46.34 -34 46 C-31.506362 42.96426679 -29.13082096 41.51956439 -25.5625 40.0625 C-21.47264219 38.37014504 -19.0151616 36.28120527 -16 33 C-14.515 32.505 -14.515 32.505 -13 32 C-13 31.34 -13 30.68 -13 30 C-12.34 29.67 -11.68 29.34 -11 29 C-10.67 28.01 -10.34 27.02 -10 26 C-9.34 26 -8.68 26 -8 26 C-7.67 24.35 -7.34 22.7 -7 21 C-6.34 21 -5.68 21 -5 21 C-4.79503906 20.24074219 -4.59007812 19.48148438 -4.37890625 18.69921875 C-4.10949219 17.70535156 -3.84007812 16.71148437 -3.5625 15.6875 C-3.29566406 14.70136719 -3.02882812 13.71523438 -2.75390625 12.69921875 C-2.21920575 10.78482474 -1.62855462 8.88566385 -1 7 C-5.10711771 8.86687169 -7.88162476 10.77025422 -11 14 C-11.66 14 -12.32 14 -13 14 C-13 14.66 -13 15.32 -13 16 C-15.31 16.99 -17.62 17.98 -20 19 C-20 18.34 -20 17.68 -20 17 C-18.29870251 15.64482856 -16.53714076 14.36477042 -14.75 13.125 C-11.86574331 11.11822881 -9.23908224 9.24159009 -6.765625 6.7421875 C-5 5 -5 5 -3 5 C-2.690625 4.360625 -2.38125 3.72125 -2.0625 3.0625 C-1 1 -1 1 0 0 Z " fill="#1650B7" transform="translate(217,36)"/>
<path d="M0 0 C0.33 0 0.66 0 1 0 C1.77775397 3.80235272 1.96275232 6.29506349 1 10 C0.75676094 12.03780282 0.55083603 14.0802782 0.375 16.125 C0.27960938 17.17945313 0.18421875 18.23390625 0.0859375 19.3203125 C-0.21178043 21.9728169 -0.21178043 21.9728169 1 24 C5.31569501 22.51182931 6.06846267 19.94355538 8 16 C10.1875 14.125 10.1875 14.125 12 13 C12.33 13.99 12.66 14.98 13 16 C11.77734375 18.09375 11.77734375 18.09375 9.9375 20.5 C6.55979421 25.07776892 3.89804508 29.76318499 1.359375 34.84765625 C0 37 0 37 -3 38 C-3.21914969 28.60091349 -3.00196874 19.36083269 -2.0625 10 C-1.97564941 9.12182617 -1.88879883 8.24365234 -1.79931641 7.33886719 C-1.13407845 1.13407845 -1.13407845 1.13407845 0 0 Z " fill="#CC2663" transform="translate(91,282)"/>
<path d="M0 0 C0.66 0 1.32 0 2 0 C4.50171492 20.16442512 0.44402143 42.94714271 -9 61 C-9.99 61.495 -9.99 61.495 -11 62 C-10.566875 60.783125 -10.13375 59.56625 -9.6875 58.3125 C-7.67573096 52.31551229 -6.34557312 46.17436743 -5 40 C-4.34 40 -3.68 40 -3 40 C-3.01740234 39.09507812 -3.01740234 39.09507812 -3.03515625 38.171875 C-3.04417969 37.37265625 -3.05320313 36.5734375 -3.0625 35.75 C-3.07410156 34.96109375 -3.08570313 34.1721875 -3.09765625 33.359375 C-3 31 -3 31 -2.52734375 29.24609375 C-1.85862239 26.3978361 -1.6713403 23.62160961 -1.46484375 20.703125 C-1.37783203 19.49785156 -1.29082031 18.29257813 -1.20117188 17.05078125 C-1.11416016 15.79652344 -1.02714844 14.54226562 -0.9375 13.25 C-0.84662109 11.98027344 -0.75574219 10.71054688 -0.66210938 9.40234375 C-0.43825903 6.26843887 -0.21768 3.13433852 0 0 Z " fill="#E33E24" transform="translate(233,226)"/>
<path d="M0 0 C0.33 0 0.66 0 1 0 C1.01458252 0.70906494 1.02916504 1.41812988 1.04418945 2.14868164 C1.49001143 21.76240087 1.49001143 21.76240087 5 41 C2 40 2 40 1.04858398 38.11743164 C0.78376221 37.30653076 0.51894043 36.49562988 0.24609375 35.66015625 C-0.05103516 34.76103516 -0.34816406 33.86191406 -0.65429688 32.93554688 C-1.10385742 31.51338867 -1.10385742 31.51338867 -1.5625 30.0625 C-1.86607422 29.14919922 -2.16964844 28.23589844 -2.48242188 27.29492188 C-4.44225093 21.26172264 -5.90034269 15.24608744 -7 9 C-6.01 9 -5.02 9 -4 9 C-3.34 10.65 -2.68 12.3 -2 14 C-1.34 9.38 -0.68 4.76 0 0 Z " fill="#2D4BA6" transform="translate(60,213)"/>
<path d="M0 0 C-0.99 0.66 -1.98 1.32 -3 2 C-4.00805555 4.17897492 -4.00805555 4.17897492 -4.6875 6.625 C-4.93886719 7.44226563 -5.19023437 8.25953125 -5.44921875 9.1015625 C-5.63097656 9.72804688 -5.81273437 10.35453125 -6 11 C-6.33 10.34 -6.66 9.68 -7 9 C-15.85532044 8.8446435 -23.57159131 10.19053044 -32 13 C-32.66 12.34 -33.32 11.68 -34 11 C-33.30962646 10.74307373 -32.61925293 10.48614746 -31.90795898 10.22143555 C-28.75047824 9.04522301 -25.5939843 7.86638383 -22.4375 6.6875 C-21.35146484 6.28337891 -20.26542969 5.87925781 -19.14648438 5.46289062 C-12.45990981 2.9695232 -12.45990981 2.9695232 -5.91015625 0.14453125 C-3 -1 -3 -1 0 0 Z " fill="#EA2D2B" transform="translate(178,281)"/>
<path d="M0 0 C0 0.66 0 1.32 0 2 C-2.12708874 3.96346653 -3.88268999 4.9626269 -6.6484375 5.84375 C-21.93400139 11.11709139 -36.10285117 21.23591296 -48 32 C-48.66 31.67 -49.32 31.34 -50 31 C-34.03333333 16 -34.03333333 16 -29 16 C-29 15.34 -29 14.68 -29 14 C-28.23816406 13.62488281 -27.47632813 13.24976563 -26.69140625 12.86328125 C-20.36498638 9.72771485 -14.14304989 6.48106161 -8 3 C-11.96 3.66 -15.92 4.32 -20 5 C-20 4.34 -20 3.68 -20 3 C-17.60530271 2.49395076 -15.20948283 1.99500483 -12.8125 1.5 C-12.13896484 1.35691406 -11.46542969 1.21382812 -10.77148438 1.06640625 C-7.12490207 0.31930158 -3.72351043 -0.17352282 0 0 Z " fill="#1C46A3" transform="translate(175,157)"/>
<path d="M0 0 C0.66 0.33 1.32 0.66 2 1 C1.54109375 1.37511719 1.0821875 1.75023437 0.609375 2.13671875 C-3.77069636 5.7898455 -7.43306716 9.36470385 -10.375 14.3125 C-11.80188913 16.6723551 -13.31841969 18.75890089 -15 20.9375 C-16.91831631 23.43841608 -18.28249903 25.57546098 -19.6875 28.4375 C-21 31 -21 31 -24 32 C-24.73323796 34.01508358 -24.73323796 34.01508358 -25 36 C-25.66 36 -26.32 36 -27 36 C-25.69045524 31.76916309 -24.16145284 27.872603 -22 24 C-21.34 23.67 -20.68 23.34 -20 23 C-19.34786708 20.97536745 -19.34786708 20.97536745 -19 19 C-18.34 19 -17.68 19 -17 19 C-16.73703125 18.4328125 -16.4740625 17.865625 -16.203125 17.28125 C-12.78455367 10.79928358 -8.31401925 5.67094142 -2 2 C-1.34 1.34 -0.68 0.68 0 0 Z " fill="#562A91" transform="translate(133,196)"/>
<path d="M0 0 C0.85722656 0.39832031 1.71445313 0.79664062 2.59765625 1.20703125 C3.74105469 1.73683594 4.88445312 2.26664062 6.0625 2.8125 C7.18785156 3.33457031 8.31320313 3.85664062 9.47265625 4.39453125 C11.76533479 5.43804275 14.07369415 6.44798963 16.3984375 7.41796875 C20.57093113 9.25078862 24.55253687 11.33996653 28.5625 13.5 C30.02178761 14.28189946 31.4814169 15.06316163 32.94140625 15.84375 C33.63274658 16.21580566 34.32408691 16.58786133 35.03637695 16.97119141 C36.77509337 17.8821638 38.54969149 18.72391692 40.328125 19.5546875 C43.00973789 21.00526757 44.36377296 22.22401483 46.1875 24.625 C48.20980694 27.26569832 48.71497473 27.90499158 52 29 C51.67 30.32 51.34 31.64 51 33 C50.05125 32.175 49.1025 31.35 48.125 30.5 C47.47660156 29.95085937 46.82820313 29.40171875 46.16015625 28.8359375 C44.71571677 27.60829454 43.28591791 26.36322221 41.87109375 25.1015625 C33.31092851 17.77255469 23.3988273 13.45228973 13.2265625 8.82421875 C12.44740479 8.46650391 11.66824707 8.10878906 10.86547852 7.74023438 C9.35518534 7.04985123 7.84013197 6.36976817 6.32006836 5.70117188 C4.50958791 4.87797339 2.74895654 3.94691405 1 3 C0.67 2.01 0.34 1.02 0 0 Z " fill="#0D53BE" transform="translate(68,77)"/>
<path d="M0 0 C0.66 0 1.32 0 2 0 C2.50559908 1.43554025 3.0042749 2.8735202 3.5 4.3125 C3.7784375 5.11300781 4.056875 5.91351563 4.34375 6.73828125 C5 9 5 9 5 12 C5.99 12.33 6.98 12.66 8 13 C8.6875 15.0625 8.6875 15.0625 9 17 C10.98 17.33 12.96 17.66 15 18 C15 21.63 15 25.26 15 29 C14.01 29 13.02 29 12 29 C0 7.15533981 0 7.15533981 0 0 Z " fill="#634096" transform="translate(72,256)"/>
<path d="M0 0 C0 0.99 0 1.98 0 3 C-1.31622164 3.93521011 -2.64575717 4.85471346 -4.01953125 5.703125 C-11.08560951 10.33022162 -18.28385018 15.92577527 -23 23 C-22.01 23.33 -21.02 23.66 -20 24 C-20.70125 24.4125 -21.4025 24.825 -22.125 25.25 C-25.14153323 27.08615066 -28.07249245 29.02563445 -31 31 C-26.52991922 21.87697149 -11.68782052 0 0 0 Z " fill="#C41763" transform="translate(147,267)"/>
<path d="M0 0 C0.66 0 1.32 0 2 0 C2.67567125 8.16811472 1.78233625 12.48461529 -3 19 C-3.76340915 20.18486034 -4.51786761 21.37551275 -5.265625 22.5703125 C-5.66402588 23.20606201 -6.06242676 23.84181152 -6.47290039 24.49682617 C-7.27468858 25.77791447 -8.07596862 27.05932095 -8.87670898 28.34106445 C-11.77599448 32.88799724 -11.77599448 32.88799724 -14 34 C-12.56554727 28.20387799 -11.01885753 23.62373599 -7.3359375 18.9140625 C-3.49988158 13.41795899 -0.54382765 6.7072077 0 0 Z " fill="#B01A60" transform="translate(227,210)"/>
<path d="M0 0 C0.99 0.99 1.98 1.98 3 3 C-4.64285562 10.19868164 -12.59528226 16.71663763 -21 23 C-21.78503906 23.58910156 -22.57007813 24.17820312 -23.37890625 24.78515625 C-23.91386719 25.18605469 -24.44882813 25.58695312 -25 26 C-25.66 25.67 -26.32 25.34 -27 25 C-25.71937515 23.2925002 -24.38232443 21.62626404 -23 20 C-22.34 20 -21.68 20 -21 20 C-20.731875 19.360625 -20.46375 18.72125 -20.1875 18.0625 C-18.47136575 15.08184577 -16.17819022 15.05939674 -13 14 C-12.53787109 13.07574219 -12.53787109 13.07574219 -12.06640625 12.1328125 C-10.76311967 9.52623934 -9.31682604 8.5245509 -6.9375 6.875 C-3.95372478 4.88925353 -3.95372478 4.88925353 -2 2 C-1.34 2 -0.68 2 0 2 C0 1.34 0 0.68 0 0 Z " fill="#9F186D" transform="translate(160,239)"/>
<path d="M0 0 C2.31 0.33 4.62 0.66 7 1 C-0.98202564 7.62463865 -11.1549732 14.52193069 -21 18 C-21.99 17.67 -22.98 17.34 -24 17 C-23.01 12.38 -22.02 7.76 -21 3 C-20.67 3 -20.34 3 -20 3 C-20.02320312 3.61488281 -20.04640625 4.22976563 -20.0703125 4.86328125 C-20.08835937 5.67152344 -20.10640625 6.47976563 -20.125 7.3125 C-20.15980469 8.51326172 -20.15980469 8.51326172 -20.1953125 9.73828125 C-20.15817322 12.28388576 -20.15817322 12.28388576 -18 15 C-17.67 14.34 -17.34 13.68 -17 13 C-15.328125 12.03515625 -15.328125 12.03515625 -13.25 11.0625 C-10.77468628 9.87807569 -8.47567318 8.68084455 -6.125 7.25 C-4 6 -4 6 -2 6 C-2 5.34 -2 4.68 -2 4 C-1.34 3.67 -0.68 3.34 0 3 C0 2.01 0 1.02 0 0 Z " fill="#E4612C" transform="translate(99,370)"/>
<path d="M0 0 C4.86896303 0.59619955 9.32790951 1.56976822 14 3 C12 5 12 5 8.625 6.0625 C2.28860253 8.28374635 -2.80522893 12.870157 -8 17 C-8.66 16.67 -9.32 16.34 -10 16 C-8.08212742 13.46566837 -6.41051845 11.29322747 -3.8125 9.4375 C-1.66379563 7.73335516 -1.36783616 6.66681218 -1 4 C1.31 4.33 3.62 4.66 6 5 C6 4.01 6 3.02 6 2 C3.03 1.505 3.03 1.505 0 1 C0 0.67 0 0.34 0 0 Z " fill="#1B3FA4" transform="translate(85,166)"/>
<path d="M0 0 C0.84522058 2.36661763 1.16489544 3.56606462 0.2578125 5.953125 C-1.15620897 8.25420342 -2.61160291 10.51280431 -4.125 12.75 C-4.93324219 13.94882812 -4.93324219 13.94882812 -5.7578125 15.171875 C-6.16773438 15.77515625 -6.57765625 16.3784375 -7 17 C-3.29662223 17 -1.81677478 15.77087721 1.18359375 13.77734375 C3.50819228 12.78251556 4.62751926 13.31008616 7 14 C3.87852455 15.67333158 0.75226502 17.33751716 -2.375 19 C-3.26445312 19.47695313 -4.15390625 19.95390625 -5.0703125 20.4453125 C-5.92109375 20.89648438 -6.771875 21.34765625 -7.6484375 21.8125 C-8.43395996 22.23144531 -9.21948242 22.65039062 -10.02880859 23.08203125 C-12 24 -12 24 -14 24 C-12.70724438 20.35099029 -11.18136033 17.75978948 -8.6875 14.8125 C-4.98456467 10.21094438 -2.42977639 5.36342345 0 0 Z " fill="#F46824" transform="translate(168,325)"/>
<path d="M0 0 C3.39417765 3.12621626 5.6062718 5.56541027 7 10 C7.66 10 8.32 10 9 10 C9.66 10.66 10.32 11.32 11 12 C13.09291157 11.91428339 13.09291157 11.91428339 15 11 C15.33 10.01 15.66 9.02 16 8 C16.66 8 17.32 8 18 8 C18.66 5.69 19.32 3.38 20 1 C20.99 1 21.98 1 23 1 C21.23570801 5.97209562 18.6060834 10.43438061 16 15 C15.34 15 14.68 15 14 15 C14 15.66 14 16.32 14 17 C12.35 17 10.7 17 9 17 C8.68546875 16.41992188 8.3709375 15.83984375 8.046875 15.2421875 C6.04602215 11.59002839 4.05953999 7.98877999 1.6875 4.5625 C0 2 0 2 0 0 Z " fill="#173695" transform="translate(119,109)"/>
<path d="M0 0 C0.66 0 1.32 0 2 0 C1.5547115 5.27315333 0.91626837 10.01770224 -1 15 C-1.66 15 -2.32 15 -3 15 C-2.34 12.36 -1.68 9.72 -1 7 C-5.10711771 8.86687169 -7.88162476 10.77025422 -11 14 C-11.66 14 -12.32 14 -13 14 C-13 14.66 -13 15.32 -13 16 C-15.31 16.99 -17.62 17.98 -20 19 C-20 18.34 -20 17.68 -20 17 C-18.29870251 15.64482856 -16.53714076 14.36477042 -14.75 13.125 C-11.86574331 11.11822881 -9.23908224 9.24159009 -6.765625 6.7421875 C-5 5 -5 5 -3 5 C-2.690625 4.360625 -2.38125 3.72125 -2.0625 3.0625 C-1 1 -1 1 0 0 Z " fill="#1763BD" transform="translate(217,36)"/>
<path d="M0 0 C0.33 0 0.66 0 1 0 C1.02505615 0.62455078 1.0501123 1.24910156 1.07592773 1.89257812 C1.19300381 4.76187123 1.31521751 7.63092425 1.4375 10.5 C1.47681641 11.48226562 1.51613281 12.46453125 1.55664062 13.4765625 C1.5773916 23.11733145 1.5773916 23.11733145 4.125 32.1875 C5.34522392 34.7151067 4.73197109 36.36490407 4 39 C-0.70344776 30.60098614 -1.17120804 21.14563575 -1.125 11.75 C-1.12886719 10.94820312 -1.13273437 10.14640625 -1.13671875 9.3203125 C-1.13110903 5.96570065 -1.06784228 3.20352683 0 0 Z " fill="#1855B5" transform="translate(68,219)"/>
<path d="M0 0 C3.3239974 1.5088191 5.99283241 3.4579813 8.875 5.6875 C15.18599027 10.35882839 21.91611674 13.69074067 29 17 C29 17.66 29 18.32 29 19 C27.55989519 18.74337755 26.1229313 18.46909179 24.6875 18.1875 C23.88699219 18.03667969 23.08648437 17.88585937 22.26171875 17.73046875 C19.68643913 16.89872904 18.82877896 15.94661266 17 14 C15.3787272 12.96065316 13.73023819 11.96302476 12.0625 11 C8.88282555 9.1583786 5.89929635 7.26024031 3 5 C2.01 5.99 1.02 6.98 0 8 C0 5.36 0 2.72 0 0 Z " fill="#193CA1" transform="translate(55,147)"/>
<path d="M0 0 C0.495 1.485 0.495 1.485 1 3 C-9.99137452 10.39579189 -18.08969947 11.42303169 -31 11 C-31.33 10.34 -31.66 9.68 -32 9 C-30.49373047 8.97873047 -30.49373047 8.97873047 -28.95703125 8.95703125 C-19.42319829 8.67831214 -8.60447635 8.02633037 -1.14453125 1.3359375 C-0.76683594 0.89507812 -0.38914062 0.45421875 0 0 Z " fill="#1B2C83" transform="translate(109,137)"/>
<path d="M0 0 C0.99 0.495 0.99 0.495 2 1 C2.84358455 4.03259408 3.52890084 6.97832277 4.125 10.0625 C4.39328613 11.44248169 4.39328613 11.44248169 4.66699219 12.8503418 C6.6030161 23.85894253 6.37798072 34.86556027 6 46 C5.67 46 5.34 46 5 46 C4.9498877 45.17798096 4.89977539 44.35596191 4.84814453 43.5090332 C4.61571915 39.77626054 4.37049792 36.04443474 4.125 32.3125 C4.04636719 31.01892578 3.96773437 29.72535156 3.88671875 28.39257812 C3.80292969 27.14541016 3.71914062 25.89824219 3.6328125 24.61328125 C3.55949707 23.46641846 3.48618164 22.31955566 3.41064453 21.13793945 C3.01217845 18.09306159 2.20309696 15.80306363 1 13 C0.95936168 11.33382885 0.957279 9.66611905 1 8 C0.67619874 6.66431979 0.34342449 5.33076989 0 4 C0 2.68 0 1.36 0 0 Z " fill="#521F74" transform="translate(229,144)"/>
<path d="M0 0 C0.33 0 0.66 0 1 0 C0.70277433 2.67503102 0.36666232 5.33414923 0 8 C-0.09925781 8.81726563 -0.19851562 9.63453125 -0.30078125 10.4765625 C-1.45351457 17.99843853 -4.68419165 22.68419165 -10 28 C-11 25 -11 25 -9.70703125 22.03125 C-9.08344559 20.84994923 -8.45142635 19.67307446 -7.8125 18.5 C-4.66032544 12.49129011 -2.12158313 6.45699214 0 0 Z " fill="#951A75" transform="translate(189,207)"/>
<path d="M0 0 C0 4.37291536 -1.16497403 7.01240543 -3.98828125 10.3515625 C-4.75527344 11.10179687 -5.52226562 11.85203125 -6.3125 12.625 C-7.07175781 13.38039062 -7.83101562 14.13578125 -8.61328125 14.9140625 C-10.95349792 16.95935824 -13.28879752 18.49324322 -16 20 C-15.91563067 17.13144287 -15.41307819 15.44317685 -13.4453125 13.33203125 C-8.48559976 9 -8.48559976 9 -6 9 C-5.67 7.68 -5.34 6.36 -5 5 C-4.34 5 -3.68 5 -3 5 C-2.690625 4.360625 -2.38125 3.72125 -2.0625 3.0625 C-1 1 -1 1 0 0 Z " fill="#CC1E55" transform="translate(214,239)"/>
<path d="M0 0 C0.66 0 1.32 0 2 0 C2 6.27 2 12.54 2 19 C1.67 19 1.34 19 1 19 C1 14.38 1 9.76 1 5 C0.34 5 -0.32 5 -1 5 C-0.87625 6.8253125 -0.87625 6.8253125 -0.75 8.6875 C-0.72528316 12.16639526 -0.95888443 12.93832664 -3 16 C-3.66 16.66 -4.32 17.32 -5 18 C-4.56699236 11.18012971 -3.09212176 6.08356979 0 0 Z " fill="#C42643" transform="translate(234,221)"/>
<path d="M0 0 C0.66 0 1.32 0 2 0 C2.90874789 9.09975932 3.25330897 17.04263127 1 26 C0.67 26 0.34 26 0 26 C-0.77546747 17.15967082 -1.19354532 8.83223535 0 0 Z " fill="#DD1F34" transform="translate(233,226)"/>
<path d="M0 0 C0.66 0 1.32 0 2 0 C3.2915066 3.87451979 2.34630909 5.17364786 1 9 C0.48327425 11.34301599 0.01143317 13.68997587 -0.4375 16.046875 C-1 18 -1 18 -3 20 C-4.238476 14.93704779 -3.60107175 11.56707897 -2.0625 6.625 C-1.68222656 5.37976563 -1.30195312 4.13453125 -0.91015625 2.8515625 C-0.60980469 1.91054688 -0.30945313 0.96953125 0 0 Z " fill="#E94D24" transform="translate(83,354)"/>
<path d="M0 0 C0.33 0.99 0.66 1.98 1 3 C-3.58684702 6.98856262 -9.31113709 10.09777683 -15.4375 9.875 C-18 9 -18 9 -20 7 C-19.2265625 6.91363281 -18.453125 6.82726562 -17.65625 6.73828125 C-10.66306953 5.79489428 -5.61393841 4.32603489 0 0 Z " fill="#122676" transform="translate(111,128)"/>
<path d="M0 0 C0.33 0.99 0.66 1.98 1 3 C-0.3125 5.1875 -0.3125 5.1875 -2 7 C-2.66 7 -3.32 7 -4 7 C-4.2475 7.9075 -4.495 8.815 -4.75 9.75 C-6 13 -6 13 -7.875 14.8125 C-10.39749595 17.409187 -11.69138542 19.9910786 -13.25 23.25 C-13.77078125 24.32765625 -14.2915625 25.4053125 -14.828125 26.515625 C-15.21484375 27.33546875 -15.6015625 28.1553125 -16 29 C-16.7109375 27.41015625 -16.7109375 27.41015625 -17 25 C-15.97639005 22.65048593 -14.93404443 20.61824902 -13.625 18.4375 C-13.26792969 17.82632324 -12.91085938 17.21514648 -12.54296875 16.58544922 C-8.93048284 10.57453516 -4.63715619 5.25973735 0 0 Z " fill="#E22C23" transform="translate(105,318)"/>
<path d="M0 0 C0.99 0 1.98 0 3 0 C3 1.65 3 3.3 3 5 C4.32 5 5.64 5 7 5 C7.0825 6.0725 7.165 7.145 7.25 8.25 C8.06700035 12.33500175 8.9561637 13.34891677 12 16 C12 16.66 12 17.32 12 18 C8.42071281 16.55898828 6.92599226 14.85719199 4.875 11.625 C4.37742187 10.85414063 3.87984375 10.08328125 3.3671875 9.2890625 C0 3.65142857 0 3.65142857 0 0 Z " fill="#132370" transform="translate(117,138)"/>
<path d="M0 0 C7.92 0 15.84 0 24 0 C24 0.66 24 1.32 24 2 C16.41 2.33 8.82 2.66 1 3 C0.67 2.01 0.34 1.02 0 0 Z " fill="#0B7CD2" transform="translate(120,49)"/>
<path d="M0 0 C2 1 2 1 3.0625 3 C4.28542733 6.91336746 5.09248448 10.88444056 5 15 C4.01 16.485 4.01 16.485 3 18 C2.30030318 15.75376301 1.61564957 13.50283586 0.9375 11.25 C0.55464844 9.99703125 0.17179687 8.7440625 -0.22265625 7.453125 C-0.92656828 4.3261992 -1.16653785 2.90533954 0 0 Z " fill="#2C52B4" transform="translate(54,221)"/>
<path d="M0 0 C-0.66 2.64 -1.32 5.28 -2 8 C-2.33 7.34 -2.66 6.68 -3 6 C-5.31 6 -7.62 6 -10 6 C-9.8125 4.125 -9.8125 4.125 -9 2 C-5.70173093 0.21715186 -3.8225249 0 0 0 Z " fill="#F23F2C" transform="translate(174,284)"/>
<path d="M0 0 C0.33 0.66 0.66 1.32 1 2 C-0.17972781 4.21050009 -1.39842704 6.27358177 -2.75 8.375 C-3.1109375 8.9525 -3.471875 9.53 -3.84375 10.125 C-5.77217165 13.18532132 -7.77821689 16.14543056 -10 19 C-10.22036864 15.14354879 -9.60355101 12.50776784 -8 9 C-7.34 9 -6.68 9 -6 9 C-6 8.01 -6 7.02 -6 6 C-5.34 6 -4.68 6 -4 6 C-4 5.01 -4 4.02 -4 3 C-2 1.3125 -2 1.3125 0 0 Z " fill="#2045A9" transform="translate(110,205)"/>
<path d="M0 0 C4.20393865 0.76836694 5.52187506 2.54832597 8 6 C7.525625 6.391875 7.05125 6.78375 6.5625 7.1875 C4.64820367 9.40808374 4.38733012 11.13375709 4 14 C2.30566082 10.9530371 1.50532888 8.17178534 0.875 4.75 C0.70742188 3.85796875 0.53984375 2.9659375 0.3671875 2.046875 C0.18542969 1.03367188 0.18542969 1.03367188 0 0 Z " fill="#1286D3" transform="translate(42,36)"/>
<path d="M0 0 C2.31 0.33 4.62 0.66 7 1 C3.81514226 3.76021004 0.43863797 6.07741127 -3.125 8.3125 C-3.97320312 8.84488281 -4.82140625 9.37726563 -5.6953125 9.92578125 C-8 11 -8 11 -11 10 C-4.25 6 -4.25 6 -2 6 C-2 5.34 -2 4.68 -2 4 C-1.34 3.67 -0.68 3.34 0 3 C0 2.01 0 1.02 0 0 Z " fill="#EC5D25" transform="translate(99,370)"/>
<path d="M0 0 C0 0.66 0 1.32 0 2 C-2.06175364 2.959938 -4.12443469 3.91788424 -6.1875 4.875 C-7.33605469 5.40867187 -8.48460937 5.94234375 -9.66796875 6.4921875 C-10.76753906 6.98976563 -11.86710938 7.48734375 -13 8 C-13.88300781 8.41507813 -14.76601562 8.83015625 -15.67578125 9.2578125 C-18 10 -18 10 -22 9 C-19.03 8.01 -16.06 7.02 -13 6 C-13 5.34 -13 4.68 -13 4 C-12.34 4 -11.68 4 -11 4 C-10.67 3.34 -10.34 2.68 -10 2 C-8.0085944 1.61866701 -6.00720923 1.28674418 -4 1 C-2 0 -2 0 0 0 Z " fill="#1348B0" transform="translate(184,82)"/>
<path d="M0 0 C0.66 0.33 1.32 0.66 2 1 C1.07456291 2.34173403 0.13422595 3.67320159 -0.8125 5 C-1.59560547 6.11375 -1.59560547 6.11375 -2.39453125 7.25 C-3.18923828 8.11625 -3.18923828 8.11625 -4 9 C-4.99 9 -5.98 9 -7 9 C-7 9.66 -7 10.32 -7 11 C-7.66 11 -8.32 11 -9 11 C-9.33 11.99 -9.66 12.98 -10 14 C-11.65 14.33 -13.3 14.66 -15 15 C-10 10 -5 5 0 0 Z " fill="#E1272C" transform="translate(218,251)"/>
<path d="M0 0 C0.33 0 0.66 0 1 0 C1.4207137 5.99517028 0.65750577 11.2006392 -0.875 17 C-1.04870117 17.6710376 -1.22240234 18.3420752 -1.40136719 19.03344727 C-1.86636762 20.70929678 -2.4262122 22.358213 -3 24 C-3.66 24.33 -4.32 24.66 -5 25 C-4.67 21.37 -4.34 17.74 -4 14 C-3.34 14 -2.68 14 -2 14 C-1.34 9.38 -0.68 4.76 0 0 Z " fill="#811B65" transform="translate(233,191)"/>
<path d="M0 0 C0.33 0 0.66 0 1 0 C1.33 2.97 1.66 5.94 2 9 C-1 11 -1 11 -3.125 10.8125 C-3.74375 10.544375 -4.3625 10.27625 -5 10 C-5.33 9.01 -5.66 8.02 -6 7 C-5.195625 6.21625 -4.39125 5.4325 -3.5625 4.625 C-1.01309583 2.28017144 -1.01309583 2.28017144 0 0 Z " fill="#FA6D23" transform="translate(122,355)"/>
<path d="M0 0 C0.33 0 0.66 0 1 0 C1.77428196 3.78537848 1.9915494 6.3092328 1 10 C0.78807905 11.58025005 0.60076629 13.16398461 0.4375 14.75 C0.31181641 15.94882812 0.31181641 15.94882812 0.18359375 17.171875 C0.12300781 17.77515625 0.06242187 18.3784375 0 19 C-0.66 19 -1.32 19 -2 19 C-2.0991667 12.90675749 -2.17328971 6.99681407 -1 1 C-0.67 0.67 -0.34 0.34 0 0 Z " fill="#AA1D73" transform="translate(91,282)"/>
<path d="M0 0 C0.66 0 1.32 0 2 0 C2.50559908 1.43554025 3.0042749 2.8735202 3.5 4.3125 C3.7784375 5.11300781 4.056875 5.91351563 4.34375 6.73828125 C5 9 5 9 5 12 C5.99 12.33 6.98 12.66 8 13 C8.33 14.65 8.66 16.3 9 18 C5.97570595 16.95312898 5.0949354 16.17138339 3.515625 13.3203125 C3.09796875 12.26585937 2.6803125 11.21140625 2.25 10.125 C1.82203125 9.07570313 1.3940625 8.02640625 0.953125 6.9453125 C0 4 0 4 0 0 Z " fill="#3A449F" transform="translate(72,256)"/>
<path d="M0 0 C0 0.99 0 1.98 0 3 C0.99 3.66 1.98 4.32 3 5 C4.76732122 8.44162553 5.21977786 11.1538875 5 15 C3.79371992 12.66785852 2.8345262 10.50357861 2 8 C0.7625 7.505 0.7625 7.505 -0.5 7 C-1.7375 6.505 -1.7375 6.505 -3 6 C-3.33 5.01 -3.66 4.02 -4 3 C-4.66 2.67 -5.32 2.34 -6 2 C-2.25 0 -2.25 0 0 0 Z " fill="#16328F" transform="translate(175,97)"/>
<path d="M0 0 C0.85722656 0.39832031 1.71445313 0.79664062 2.59765625 1.20703125 C8.36889694 3.88119126 14.14029534 6.52590248 20 9 C20.66 9.33 21.32 9.66 22 10 C21.67 10.66 21.34 11.32 21 12 C17.67983867 10.57974588 14.37043205 9.13598348 11.0625 7.6875 C10.11697266 7.28337891 9.17144531 6.87925781 8.19726562 6.46289062 C7.29814453 6.06650391 6.39902344 5.67011719 5.47265625 5.26171875 C4.64000244 4.90037842 3.80734863 4.53903809 2.94946289 4.16674805 C1 3 1 3 0 0 Z " fill="#0E5EBF" transform="translate(68,77)"/>
<path d="M0 0 C0.33 0.66 0.66 1.32 1 2 C0.34 1.67 -0.32 1.34 -1 1 C-0.67 0.67 -0.34 0.34 0 0 Z M-7 6 C-5 7 -5 7 -2 9 C-2.70125 9.4125 -3.4025 9.825 -4.125 10.25 C-7.14153323 12.08615066 -10.07249245 14.02563445 -13 16 C-11.34832443 12.4213696 -9.21713508 9.25179812 -7 6 Z " fill="#D81862" transform="translate(129,282)"/>
<path d="M0 0 C0.66 0.33 1.32 0.66 2 1 C-0.5855017 5.40492883 -2.16435447 7.38811816 -7 9 C-8.77277259 10.52007842 -8.77277259 10.52007842 -10 12 C-10.66 11.67 -11.32 11.34 -12 11 C-7.375 5.125 -7.375 5.125 -4 4 C-2.62804426 2.70644173 -1.28817344 1.37701298 0 0 Z " fill="#B41876" transform="translate(134,261)"/>
<path d="M0 0 C1 3 1 3 -0.07421875 5.2265625 C-0.87279297 6.41378906 -0.87279297 6.41378906 -1.6875 7.625 C-2.20699219 8.42164063 -2.72648438 9.21828125 -3.26171875 10.0390625 C-5.17418516 12.19649652 -6.18771639 12.64463519 -9 13 C-6.39163722 8.36291061 -3.22997426 4.21255542 0 0 Z " fill="#A5176C" transform="translate(178,233)"/>
<path d="M0 0 C4.47728999 1.193944 6.416661 2.18649957 9 6 C9.99 6.33 10.98 6.66 12 7 C11.67 8.32 11.34 9.64 11 11 C6.86378916 7.6189962 3.18683431 4.33409466 0 0 Z " fill="#1048AE" transform="translate(108,99)"/>
<path d="M0 0 C0.33 0 0.66 0 1 0 C0.88608368 2.60508636 0.75934452 5.20845546 0.625 7.8125 C0.5940625 8.55048828 0.563125 9.28847656 0.53125 10.04882812 C0.32653852 13.81893115 0.13566173 15.79650741 -2 19 C-2.05394705 16.39555652 -2.09364469 13.79223002 -2.125 11.1875 C-2.14175781 10.44951172 -2.15851563 9.71152344 -2.17578125 8.95117188 C-2.21074628 5.08753574 -2.19397555 3.29096332 0 0 Z " fill="#3F3E99" transform="translate(88,255)"/>
<path d="M0 0 C3.25669165 3.08065427 6.10679924 5.89806503 8 10 C7.5703125 12.15234375 7.5703125 12.15234375 7 14 C6.66226563 13.43410156 6.32453125 12.86820313 5.9765625 12.28515625 C5.53054687 11.55167969 5.08453125 10.81820312 4.625 10.0625 C4.18414062 9.33160156 3.74328125 8.60070312 3.2890625 7.84765625 C2.1226016 5.86227728 2.1226016 5.86227728 0 5 C0 3.35 0 1.7 0 0 Z " fill="#102370" transform="translate(114,115)"/>
<path d="M0 0 C0.33 0 0.66 0 1 0 C1.18175781 0.80824219 1.36351563 1.61648437 1.55078125 2.44921875 C1.80214844 3.51785156 2.05351563 4.58648437 2.3125 5.6875 C2.55613281 6.74324219 2.79976563 7.79898438 3.05078125 8.88671875 C3.99260825 11.97575628 5.22372937 14.31817964 7 17 C5.14453125 16.79296875 5.14453125 16.79296875 3 16 C0.32390308 11.73271032 -1.09586018 7.38997262 -0.75 2.375 C-0.5025 1.59125 -0.255 0.8075 0 0 Z " fill="#122A89" transform="translate(71,110)"/>
<path d="M0 0 C0.33 0.99 0.66 1.98 1 3 C-4.01372252 6.52913975 -7.83543922 8.61471495 -14 9 C-11.07368291 6.34802514 -8.44443633 4.67071058 -4.75 3.375 C-0.9478068 2.46711456 -0.9478068 2.46711456 0 0 Z " fill="#15267A" transform="translate(109,137)"/>
<path d="M0 0 C0.66 0.33 1.32 0.66 2 1 C0.71520959 2.50589388 -0.57804082 4.00457375 -1.875 5.5 C-2.95394531 6.75296875 -2.95394531 6.75296875 -4.0546875 8.03125 C-4.69664062 8.6809375 -5.33859375 9.330625 -6 10 C-6.66 10 -7.32 10 -8 10 C-7.16967153 5.98674574 -5.94689506 3.66282654 -2.5 1.25 C-1.675 0.8375 -0.85 0.425 0 0 Z " fill="#931D74" transform="translate(171,230)"/>
<path d="M0 0 C0.66 0 1.32 0 2 0 C2.84114171 1.43294498 3.67265687 2.87154405 4.5 4.3125 C5.19609375 5.51326172 5.19609375 5.51326172 5.90625 6.73828125 C7 9 7 9 7 12 C7.66 12 8.32 12 9 12 C9 12.66 9 13.32 9 14 C6.625 13.375 6.625 13.375 4 12 C2.8125 9.0625 2.8125 9.0625 2 6 C1.34 5.01 0.68 4.02 0 3 C0 2.01 0 1.02 0 0 Z " fill="#14226B" transform="translate(123,131)"/>
<path d="M0 0 C0.33 0 0.66 0 1 0 C1.22281874 1.91503674 1.42771076 3.83216506 1.625 5.75 C1.74101562 6.81734375 1.85703125 7.8846875 1.9765625 8.984375 C2.00066764 12.08590328 1.68728991 13.45184789 0 16 C-0.66 16.66 -1.32 17.32 -2 18 C-1.33333333 12 -0.66666667 6 0 0 Z " fill="#EB3332" transform="translate(232,244)"/>
<path d="M0 0 C0.66 0.99 1.32 1.98 2 3 C0.02 5.64 -1.96 8.28 -4 11 C-5 7 -5 7 -3.6875 4.375 C-2 2 -2 2 0 0 Z " fill="#C51A65" transform="translate(102,295)"/>
<path d="M0 0 C0.33 0 0.66 0 1 0 C1.12375 1.2375 1.2475 2.475 1.375 3.75 C1.67766947 6.28263128 1.94908649 7.9010015 3.125 10.1875 C4.34522392 12.7151067 3.73197109 14.36490407 3 17 C1.36062254 14.01868487 0.48091923 11.26954472 -0.1875 7.9375 C-0.36667969 7.08027344 -0.54585938 6.22304687 -0.73046875 5.33984375 C-1 3 -1 3 0 0 Z " fill="#254FAA" transform="translate(69,241)"/>
<path d="M0 0 C0.66 0.33 1.32 0.66 2 1 C1.54109375 1.38671875 1.0821875 1.7734375 0.609375 2.171875 C-2.725081 5.00195951 -5.96501303 7.84361355 -9 11 C-9.33 10.01 -9.66 9.02 -10 8 C-6.66666667 5.33333333 -3.33333333 2.66666667 0 0 Z " fill="#553497" transform="translate(133,196)"/>
<path d="M0 0 C0.625 1.8125 0.625 1.8125 1 4 C0.01 5.485 0.01 5.485 -1 7 C-1 6.01 -1 5.02 -1 4 C-1.99 4 -2.98 4 -4 4 C-4 4.66 -4 5.32 -4 6 C-5.32 5.34 -6.64 4.68 -8 4 C-2.25 0 -2.25 0 0 0 Z M-8 6 C-6 7 -6 7 -6 7 Z " fill="#22359C" transform="translate(207,80)"/>
<path d="M0 0 C0 4.00333149 -0.93272472 6.80957758 -3.625 9.8125 C-4.07875 10.204375 -4.5325 10.59625 -5 11 C-5.66 10.67 -6.32 10.34 -7 10 C-6.34 8.35 -5.68 6.7 -5 5 C-4.34 5 -3.68 5 -3 5 C-2.690625 4.360625 -2.38125 3.72125 -2.0625 3.0625 C-1 1 -1 1 0 0 Z " fill="#C41A5C" transform="translate(214,239)"/>
<path d="M0 0 C-1 2 -1 2 -3.75 3.125 C-6.70186896 3.91973395 -8.97219837 4.17810598 -12 4 C-9.07491676 -0.38762486 -5.0380608 -1.6793536 0 0 Z " fill="#087FD5" transform="translate(104,54)"/>
<path d="M0 0 C0.66 0 1.32 0 2 0 C1.67 2.97 1.34 5.94 1 9 C0.67 8.01 0.34 7.02 0 6 C-1.65 6 -3.3 6 -5 6 C-4.34 5.67 -3.68 5.34 -3 5 C-2.30062468 3.68352881 -1.63270867 2.34977849 -1 1 C-0.67 0.67 -0.34 0.34 0 0 Z " fill="#256CBC" transform="translate(217,36)"/>
<path d="M0 0 C0.33 0 0.66 0 1 0 C1.21192221 5.19209404 0.5912689 9.126739 -1 14 C-1.66 14 -2.32 14 -3 14 C-3 12.02 -3 10.04 -3 8 C-2.34 8 -1.68 8 -1 8 C-0.67 5.36 -0.34 2.72 0 0 Z " fill="#E13122" transform="translate(231,258)"/>
<path d="M0 0 C0.66 0 1.32 0 2 0 C2 3.63 2 7.26 2 11 C1.01 11 0.02 11 -1 11 C-2.60080151 6.99799622 -1.29279692 3.95443764 0 0 Z " fill="#AA1D69" transform="translate(227,210)"/>
<path d="M0 0 C0.66 0 1.32 0 2 0 C0.55575365 3.23861303 -1.25772247 5.61969163 -3.625 8.25 C-4.25664063 8.95640625 -4.88828125 9.6628125 -5.5390625 10.390625 C-6.02117187 10.92171875 -6.50328125 11.4528125 -7 12 C-7.66 11.67 -8.32 11.34 -9 11 C-7.5489926 9.16086305 -6.08898341 7.3288247 -4.625 5.5 C-3.81289062 4.4790625 -3.00078125 3.458125 -2.1640625 2.40625 C-1.44992188 1.6121875 -0.73578125 0.818125 0 0 Z " fill="#1A48AC" transform="translate(120,192)"/>
<path d="M0 0 C0.66 0.33 1.32 0.66 2 1 C-1.3 3.64 -4.6 6.28 -8 9 C-8.66 8.67 -9.32 8.34 -10 8 C-7.1524798 3.94775971 -4.63339243 1.8130666 0 0 Z " fill="#1A399A" transform="translate(85,174)"/>
<path d="M0 0 C1.95468059 2.93202088 2.55258673 4.68004563 3.25 8.0625 C3.44078125 8.94035156 3.6315625 9.81820312 3.828125 10.72265625 C3.88484375 11.47417969 3.9415625 12.22570312 4 13 C3.34 13.66 2.68 14.32 2 15 C1.47076428 12.87707704 0.95184623 10.75157949 0.4375 8.625 C0.14746094 7.44164062 -0.14257812 6.25828125 -0.44140625 5.0390625 C-1 2 -1 2 0 0 Z " fill="#3E2D87" transform="translate(226,131)"/>
<path d="M0 0 C0.33 0.99 0.66 1.98 1 3 C-0.14453125 5.26171875 -0.14453125 5.26171875 -1.8125 7.6875 C-2.35519531 8.49574219 -2.89789063 9.30398437 -3.45703125 10.13671875 C-3.96621094 10.75160156 -4.47539063 11.36648437 -5 12 C-5.66 12 -6.32 12 -7 12 C-6.38801624 8.56049636 -5.07941153 6.48435515 -2.9375 3.75 C-2.38964844 3.04359375 -1.84179688 2.3371875 -1.27734375 1.609375 C-0.85582031 1.07828125 -0.43429688 0.5471875 0 0 Z " fill="#193CA0" transform="translate(73,184)"/>
<path d="M0 0 C4.38894929 3.26720791 8.75259665 6.54898478 13 10 C8.8911959 9.47470631 6.74480159 8.33192009 3.6875 5.5625 C2.99011719 4.94503906 2.29273438 4.32757813 1.57421875 3.69140625 C0 2 0 2 0 0 Z " fill="#162986" transform="translate(60,135)"/>
<path d="M0 0 C0.66 0 1.32 0 2 0 C1.29066469 3.68854359 -0.06934367 6.78223945 -2 10 C-4.1875 10.875 -4.1875 10.875 -6 11 C-4.50120132 7.88711043 -2.78832621 4.95462591 -1 2 C-0.67 1.34 -0.34 0.68 0 0 Z " fill="#152B7A" transform="translate(188,120)"/>
<path d="M0 0 C1.44977894 2.34112451 2.04314411 3.5796929 1.7578125 6.359375 C1.54898438 7.14828125 1.34015625 7.9371875 1.125 8.75 C0.92132813 9.54921875 0.71765625 10.3484375 0.5078125 11.171875 C0.34023437 11.77515625 0.17265625 12.3784375 0 13 C-1.44977894 10.65887549 -2.04314411 9.4203071 -1.7578125 6.640625 C-1.54898438 5.85171875 -1.34015625 5.0628125 -1.125 4.25 C-0.92132813 3.45078125 -0.71765625 2.6515625 -0.5078125 1.828125 C-0.34023437 1.22484375 -0.17265625 0.6215625 0 0 Z " fill="#3243A3" transform="translate(90,244)"/>
<path d="M0 0 C0.99 0.33 1.98 0.66 3 1 C2.04454634 2.46022163 1.08553322 3.91811468 0.125 5.375 C-0.40867188 6.18710938 -0.94234375 6.99921875 -1.4921875 7.8359375 C-3 10 -3 10 -5 12 C-4.42365861 7.24518354 -2.44931479 4.02951788 0 0 Z " fill="#12216B" transform="translate(138,130)"/>
<path d="M0 0 C0.33 0 0.66 0 1 0 C1.36923077 6.4 1.36923077 6.4 -0.5 9.4375 C-0.995 9.953125 -1.49 10.46875 -2 11 C-2.625 8.125 -2.625 8.125 -3 5 C-2.34 4.34 -1.68 3.68 -1 3 C-0.67 2.01 -0.34 1.02 0 0 Z " fill="#F45D29" transform="translate(82,363)"/>
<path d="M0 0 C0.33 0.99 0.66 1.98 1 3 C-0.40445835 5.2636564 -2.1967913 7.0208685 -4 9 C-4.8125 7.3125 -4.8125 7.3125 -5 5 C-2.5625 2.25 -2.5625 2.25 0 0 Z " fill="#891E75" transform="translate(178,221)"/>
<path d="M0 0 C0.33 0.99 0.66 1.98 1 3 C0.00692179 4.33849671 -0.99357052 5.67151309 -2 7 C-2 8.32 -2 9.64 -2 11 C-2.66 11 -3.32 11 -4 11 C-4.33 11.66 -4.66 12.32 -5 13 C-4.54996653 7.37458159 -3.31558515 4.38512875 0 0 Z " fill="#8F228A" transform="translate(184,210)"/>
<path d="M0 0 C0.66 0.33 1.32 0.66 2 1 C-0.31 3.97 -2.62 6.94 -5 10 C-5.66 9.67 -6.32 9.34 -7 9 C-5.03681826 5.46627288 -2.95929119 2.75520215 0 0 Z " fill="#F0571F" transform="translate(121,354)"/>
<path d="M0 0 C0.66 0.99 1.32 1.98 2 3 C-2.875 7 -2.875 7 -4 7 C-4 5.35 -4 3.7 -4 2 C-2.68 1.34 -1.36 0.68 0 0 Z " fill="#D42550" transform="translate(112,299)"/>
<path d="M0 0 C0.99 0.66 1.98 1.32 3 2 C0.36 3.98 -2.28 5.96 -5 8 C-4.64950425 4.75791433 -4.43778819 3.38472296 -1.9375 1.1875 C-1.298125 0.795625 -0.65875 0.40375 0 0 Z " fill="#442F8E" transform="translate(195,154)"/>
<path d="M0 0 C0.66 0.33 1.32 0.66 2 1 C-0.64 3.64 -3.28 6.28 -6 9 C-6.33 7.68 -6.66 6.36 -7 5 C-6.21625 4.54625 -5.4325 4.0925 -4.625 3.625 C-1.96301969 2.11571258 -1.96301969 2.11571258 0 0 Z " fill="#AA1566" transform="translate(128,268)"/>
<path d="M0 0 C-3.3 0.66 -6.6 1.32 -10 2 C-10.33 1.34 -10.66 0.68 -11 0 C-3.375 -2.25 -3.375 -2.25 0 0 Z " fill="#141E76" transform="translate(173,136)"/>
<path d="M0 0 C0.33 0.66 0.66 1.32 1 2 C-0.65 3.98 -2.3 5.96 -4 8 C-4.33 7.01 -4.66 6.02 -5 5 C-3.35 3.35 -1.7 1.7 0 0 Z " fill="#B9185E" transform="translate(108,289)"/>
<path d="M0 0 C2 1 2 1 2.625 2.625 C3.12095645 5.7660575 3.06103811 8.82601831 3 12 C0.75263337 7.80491562 0 4.79167039 0 0 Z " fill="#41247B" transform="translate(229,144)"/>
<path d="M0 0 C4.24822374 0.47202486 6.19989709 2.96655518 9 6 C5.32579134 5.69381595 4.21864487 5.24228216 1.6875 2.4375 C1.130625 1.633125 0.57375 0.82875 0 0 Z " fill="#10287F" transform="translate(77,128)"/>
<path d="M0 0 C0.66 0.33 1.32 0.66 2 1 C1.2884375 1.61875 1.2884375 1.61875 0.5625 2.25 C-1.16266518 4.182185 -1.56584875 5.48192275 -2 8 C-2.99 8 -3.98 8 -5 8 C-5 7.01 -5 6.02 -5 5 C-4.34 5 -3.68 5 -3 5 C-2.5359375 4.0409375 -2.5359375 4.0409375 -2.0625 3.0625 C-1 1 -1 1 0 0 Z " fill="#C41770" transform="translate(112,282)"/>
<path d="M0 0 C0.66 0.33 1.32 0.66 2 1 C0.8125 3.4375 0.8125 3.4375 -1 6 C-3.6875 6.8125 -3.6875 6.8125 -6 7 C-4.60667426 3.63279613 -3.0210714 2.0140476 0 0 Z " fill="#AA1B78" transform="translate(153,246)"/>
<path d="M0 0 C0.94875 0.350625 1.8975 0.70125 2.875 1.0625 C2.215 1.7225 1.555 2.3825 0.875 3.0625 C-1.6875 2.8125 -1.6875 2.8125 -4.125 2.0625 C-4.455 1.4025 -4.785 0.7425 -5.125 0.0625 C-3.125 -0.9375 -3.125 -0.9375 0 0 Z " fill="#17308C" transform="translate(98.125,101.9375)"/>
<path d="" fill="#FF6633" transform="translate(0,0)"/>
<path d="" fill="#FF5555" transform="translate(0,0)"/>
<path d="" fill="#FF5555" transform="translate(0,0)"/>
<path d="" fill="#FF007F" transform="translate(0,0)"/>
<path d="" fill="#FF0000" transform="translate(0,0)"/>
<path d="" fill="#FF0000" transform="translate(0,0)"/>
<path d="" fill="#FF007F" transform="translate(0,0)"/>
<path d="" fill="#FF0000" transform="translate(0,0)"/>
<path d="" fill="#FF007F" transform="translate(0,0)"/>
<path d="" fill="#FF0000" transform="translate(0,0)"/>
<path d="" fill="#FF0000" transform="translate(0,0)"/>
<path d="" fill="#FF0000" transform="translate(0,0)"/>
<path d="" fill="#FF007F" transform="translate(0,0)"/>
<path d="" fill="#FF0000" transform="translate(0,0)"/>
<path d="" fill="#BF3F3F" transform="translate(0,0)"/>
<path d="" fill="#FF0000" transform="translate(0,0)"/>
<path d="" fill="#BF3F7F" transform="translate(0,0)"/>
<path d="" fill="#FF0000" transform="translate(0,0)"/>
<path d="" fill="#FF0000" transform="translate(0,0)"/>
<path d="" fill="#FF0000" transform="translate(0,0)"/>
<path d="" fill="#0000FF" transform="translate(0,0)"/>
<path d="" fill="#7F007F" transform="translate(0,0)"/>
<path d="" fill="#7F007F" transform="translate(0,0)"/>
<path d="" fill="#7F007F" transform="translate(0,0)"/>
<path d="" fill="#AA55AA" transform="translate(0,0)"/>
<path d="" fill="#FF0000" transform="translate(0,0)"/>
<path d="" fill="#0000FF" transform="translate(0,0)"/>
<path d="" fill="#007F7F" transform="translate(0,0)"/>
<path d="" fill="#007F7F" transform="translate(0,0)"/>
<path d="" fill="#3F3FBF" transform="translate(0,0)"/>
<path d="" fill="#0000FF" transform="translate(0,0)"/>
<path d="" fill="#0000FF" transform="translate(0,0)"/>
<path d="" fill="#00007F" transform="translate(0,0)"/>
<path d="" fill="#0000FF" transform="translate(0,0)"/>
<path d="" fill="#0000FF" transform="translate(0,0)"/>
<path d="" fill="#0000FF" transform="translate(0,0)"/>
<path d="" fill="#0000FF" transform="translate(0,0)"/>
<path d="" fill="#0000FF" transform="translate(0,0)"/>
<path d="" fill="#0066CC" transform="translate(0,0)"/>
<path d="" fill="#3F7FBF" transform="translate(0,0)"/>
<path d="" fill="#0000FF" transform="translate(0,0)"/>
</svg>
